<?xml version="1.0" encoding="UTF-8"?>
<!DOCTYPE svg PUBLIC "-//W3C//DTD SVG 1.1//EN" "http://www.w3.org/Graphics/SVG/1.1/DTD/svg11.dtd">
<svg xmlns="http://www.w3.org/2000/svg" version="1.1" width="512px" height="512px" style="shape-rendering:geometricPrecision; text-rendering:geometricPrecision; image-rendering:optimizeQuality; fill-rule:evenodd; clip-rule:evenodd" xmlns:xlink="http://www.w3.org/1999/xlink">
<g><path style="opacity:0.954" fill="#a46cd0" d="M 304.5,51.5 C 312.575,61.0791 321.242,70.2458 330.5,79C 330.272,79.3988 329.938,79.5654 329.5,79.5C 302.875,67.1941 278.208,51.8608 255.5,33.5C 252.798,35.22 250.132,36.8866 247.5,38.5C 244.5,35.8333 241.5,33.1667 238.5,30.5C 242.639,26.532 246.973,22.6987 251.5,19C 253.365,17.6986 255.365,17.3653 257.5,18C 272.492,30.1582 288.159,41.3248 304.5,51.5 Z"/></g>
<g><path style="opacity:0.948" fill="#916cd2" d="M 238.5,30.5 C 241.5,33.1667 244.5,35.8333 247.5,38.5C 234.936,49.3893 221.269,58.7226 206.5,66.5C 203.43,63.4362 200.763,60.1029 198.5,56.5C 212.098,48.2346 225.431,39.5679 238.5,30.5 Z"/></g>
<g><path style="opacity:0.949" fill="#826bd3" d="M 198.5,56.5 C 200.763,60.1029 203.43,63.4362 206.5,66.5C 197.312,72.2618 187.645,77.2618 177.5,81.5C 174.529,78.1924 171.529,74.859 168.5,71.5C 178.5,66.5 188.5,61.5 198.5,56.5 Z"/></g>
<g><path style="opacity:0.952" fill="#986cd1" d="M 302.5,92.5 C 309.777,101.113 317.443,109.447 325.5,117.5C 300.686,107.429 277.353,94.7621 255.5,79.5C 252.607,81.4446 249.607,83.1113 246.5,84.5C 243.833,81.5 241.167,78.5 238.5,75.5C 242.098,72.6867 245.765,69.8533 249.5,67C 251.914,65.1151 254.581,64.4484 257.5,65C 272.122,74.7889 287.122,83.9556 302.5,92.5 Z"/></g>
<g><path style="opacity:0.955" fill="#b06ccf" d="M 304.5,51.5 C 331.625,68.2034 360.625,80.2034 391.5,87.5C 391.062,87.4346 390.728,87.6012 390.5,88C 395.434,92.4262 399.767,97.2595 403.5,102.5C 377.485,98.8261 352.818,91.1594 329.5,79.5C 329.938,79.5654 330.272,79.3988 330.5,79C 321.242,70.2458 312.575,61.0791 304.5,51.5 Z"/></g>
<g><path style="opacity:0.951" fill="#8b6bd1" d="M 238.5,75.5 C 241.167,78.5 243.833,81.5 246.5,84.5C 238.042,90.9029 229.042,96.5695 219.5,101.5C 217.237,97.8971 214.57,94.5638 211.5,91.5C 220.327,85.9181 229.327,80.5847 238.5,75.5 Z"/></g>
<g><path style="opacity:0.96" fill="#6d6bd5" d="M 168.5,71.5 C 171.529,74.859 174.529,78.1924 177.5,81.5C 158.487,90.614 138.487,96.9473 117.5,100.5C 117.611,99.8826 117.944,99.3826 118.5,99C 115.297,95.6291 111.964,92.4625 108.5,89.5C 129.054,85.6901 149.054,79.6901 168.5,71.5 Z"/></g>
<g><path style="opacity:0.963" fill="#bc6ccd" d="M 391.5,87.5 C 411.57,91.5152 431.737,92.1819 452,89.5C 454.406,89.7029 456.406,90.7029 458,92.5C 462.93,115.412 464.763,138.412 463.5,161.5C 459.833,157.167 455.833,153.167 451.5,149.5C 451.182,134.066 449.849,118.733 447.5,103.5C 432.814,103.707 418.147,103.373 403.5,102.5C 399.767,97.2595 395.434,92.4262 390.5,88C 390.728,87.6012 391.062,87.4346 391.5,87.5 Z"/></g>
<g><path style="opacity:0.972" fill="#5a6bd6" d="M 108.5,89.5 C 111.964,92.4625 115.297,95.6291 118.5,99C 117.944,99.3826 117.611,99.8826 117.5,100.5C 100.634,103.164 83.6344,104.164 66.5,103.5C 62.8333,99.1667 58.8333,95.1667 54.5,91.5C 55.624,90.1914 57.124,89.5247 59,89.5C 75.4924,91.9801 91.9924,91.9801 108.5,89.5 Z"/></g>
<g><path style="opacity:0.953" fill="#796cd3" d="M 211.5,91.5 C 214.57,94.5638 217.237,97.8971 219.5,101.5C 208.019,108.24 196.019,113.907 183.5,118.5C 179.766,115.769 176.766,112.436 174.5,108.5C 186.979,103.093 199.312,97.4263 211.5,91.5 Z"/></g>
<g><path style="opacity:0.949" fill="#a36cd0" d="M 302.5,92.5 C 324.682,104.587 348.015,113.92 372.5,120.5C 377.5,125.833 382.5,131.167 387.5,136.5C 365.876,132.956 345.209,126.623 325.5,117.5C 317.443,109.447 309.777,101.113 302.5,92.5 Z"/></g>
<g><path style="opacity:0.968" fill="#616ad6" d="M 174.5,108.5 C 176.766,112.436 179.766,115.769 183.5,118.5C 162.795,127.764 141.128,134.097 118.5,137.5C 115.167,133.833 111.833,130.167 108.5,126.5C 131.213,123.152 153.213,117.152 174.5,108.5 Z"/></g>
<g><path style="opacity:0.965" fill="#856bd3" d="M 268.5,126.5 C 276.111,135.779 284.445,144.446 293.5,152.5C 298.881,160.089 303.048,168.422 306,177.5C 309.127,176.402 312.293,175.402 315.5,174.5C 318.5,177.833 321.5,181.167 324.5,184.5C 319.715,186.762 314.715,188.428 309.5,189.5C 303.202,183.703 297.035,177.703 291,171.5C 290.601,171.728 290.435,172.062 290.5,172.5C 285.68,161.496 278.68,151.996 269.5,144C 267.167,142.833 264.833,141.667 262.5,140.5C 261.503,148.138 261.169,155.804 261.5,163.5C 257.598,161.107 254.098,158.107 251,154.5C 250.722,155.416 250.222,156.082 249.5,156.5C 249.829,150.794 249.495,145.128 248.5,139.5C 245.356,140.573 242.356,141.907 239.5,143.5C 236.5,139.833 233.167,136.5 229.5,133.5C 241.795,127.85 254.795,125.517 268.5,126.5 Z"/></g>
<g><path style="opacity:0.957" fill="#ae6ccf" d="M 372.5,120.5 C 388.916,124.536 405.582,127.036 422.5,128C 424.286,128.785 425.786,129.951 427,131.5C 427.36,139.676 427.86,147.843 428.5,156C 427.746,162.814 427.412,169.647 427.5,176.5C 423.86,172.194 419.86,168.194 415.5,164.5C 415.666,157.492 415.5,150.492 415,143.5C 414.751,142.376 414.251,141.376 413.5,140.5C 404.739,139.63 396.072,138.296 387.5,136.5C 382.5,131.167 377.5,125.833 372.5,120.5 Z"/></g>
<g><path style="opacity:0.952" fill="#8c6cd2" d="M 268.5,126.5 C 321.575,136.408 352.075,168.075 360,221.5C 360.499,227.491 360.666,233.491 360.5,239.5C 354.892,235.561 349.892,230.894 345.5,225.5C 346.649,225.209 347.316,224.376 347.5,223C 345.938,209.314 341.771,196.48 335,184.5C 334.221,183.272 333.221,182.272 332,181.5C 329.535,182.651 327.035,183.651 324.5,184.5C 321.5,181.167 318.5,177.833 315.5,174.5C 318.011,173.606 320.511,172.606 323,171.5C 324.257,171.15 324.591,170.483 324,169.5C 314.601,159.054 303.434,151.554 290.5,147C 291.758,148.741 292.758,150.574 293.5,152.5C 284.445,144.446 276.111,135.779 268.5,126.5 Z"/></g>
<g><path style="opacity:0.973" fill="#6e6bd4" d="M 229.5,133.5 C 233.167,136.5 236.5,139.833 239.5,143.5C 231.398,149.85 225.065,157.684 220.5,167C 224.464,170.927 227.13,175.594 228.5,181C 235.399,182.366 242.399,183.199 249.5,183.5C 249.5,174.5 249.5,165.5 249.5,156.5C 250.222,156.082 250.722,155.416 251,154.5C 254.098,158.107 257.598,161.107 261.5,163.5C 261.5,170.167 261.5,176.833 261.5,183.5C 267.477,182.835 273.477,182.502 279.5,182.5C 282.833,186.167 286.167,189.833 289.5,193.5C 280.239,194.996 270.906,195.662 261.5,195.5C 261.5,205.5 261.5,215.5 261.5,225.5C 270.173,225.666 278.84,225.5 287.5,225C 288.896,221.695 290.896,218.862 293.5,216.5C 297.103,218.763 300.436,221.43 303.5,224.5C 298.214,229.335 298.214,234.169 303.5,239C 305.365,240.301 307.365,240.635 309.5,240C 311.66,238.668 313.66,237.168 315.5,235.5C 317.763,239.103 320.43,242.436 323.5,245.5C 320.934,248.795 317.601,251.128 313.5,252.5C 311.577,260.447 309.911,268.447 308.5,276.5C 316.071,278.023 323.404,280.357 330.5,283.5C 332.422,281.313 334.088,278.98 335.5,276.5C 338.833,279.167 341.833,282.167 344.5,285.5C 340.354,294.316 334.354,301.649 326.5,307.5C 323.833,304.5 321.167,301.5 318.5,298.5C 319.625,296.871 320.959,295.371 322.5,294C 316.677,291.545 310.677,289.712 304.5,288.5C 304.918,287.778 305.584,287.278 306.5,287C 301.605,281.936 296.605,277.103 291.5,272.5C 292.822,272.33 293.989,272.663 295,273.5C 297.846,266.422 299.179,259.089 299,251.5C 293.412,248.914 289.579,244.747 287.5,239C 278.84,238.5 270.173,238.334 261.5,238.5C 261.5,239.5 261.5,240.5 261.5,241.5C 256.369,236.87 251.369,232.037 246.5,227C 244.618,226.802 242.952,226.302 241.5,225.5C 244.167,225.5 246.833,225.5 249.5,225.5C 249.5,215.5 249.5,205.5 249.5,195.5C 244.5,195.5 239.5,195.5 234.5,195.5C 224.86,184.193 214.527,173.526 203.5,163.5C 205.288,163.785 206.955,163.452 208.5,162.5C 210.906,157.269 213.906,152.435 217.5,148C 215.037,148.22 212.704,149.054 210.5,150.5C 207.757,148.761 205.757,146.427 204.5,143.5C 212.291,139.01 220.624,135.676 229.5,133.5 Z"/></g>
<g><path style="opacity:0.974" fill="#636ad6" d="M 204.5,143.5 C 205.757,146.427 207.757,148.761 210.5,150.5C 201.643,156.013 193.643,162.68 186.5,170.5C 187.628,171.262 188.795,171.929 190,172.5C 193.054,167.386 197.554,164.386 203.5,163.5C 214.527,173.526 224.86,184.193 234.5,195.5C 228.73,193.085 224.397,194.585 221.5,200C 217.965,202.767 213.965,204.434 209.5,205C 208.748,205.671 208.414,206.504 208.5,207.5C 201.167,200.5 193.833,193.5 186.5,186.5C 184.941,184.376 182.941,182.709 180.5,181.5C 180.938,181.565 181.272,181.399 181.5,181C 178,177.5 174.5,174 171,170.5C 170.329,171.252 169.496,171.586 168.5,171.5C 178.492,159.499 190.492,150.165 204.5,143.5 Z M 206.5,175.5 C 214.204,176.914 216.704,181.247 214,188.5C 210.038,193.405 205.704,193.739 201,189.5C 197.739,182.698 199.572,178.031 206.5,175.5 Z"/></g>
<g><path style="opacity:0.965" fill="#476ad8" d="M 108.5,126.5 C 111.833,130.167 115.167,133.833 118.5,137.5C 111.912,138.781 105.245,139.615 98.5,140C 97.572,140.388 96.9054,141.055 96.5,142C 95.1563,159.574 95.8229,177.074 98.5,194.5C 93.8333,190.167 89.1667,185.833 84.5,181.5C 82.1491,165.341 81.9825,149.007 84,132.5C 84.8333,130.333 86.3333,128.833 88.5,128C 95.1706,127.474 101.837,126.974 108.5,126.5 Z"/></g>
<g><path style="opacity:0.972" fill="#3d69d9" d="M 54.5,91.5 C 58.8333,95.1667 62.8333,99.1667 66.5,103.5C 65.5,103.5 64.5,103.5 63.5,103.5C 59.0129,133.732 58.3462,164.066 61.5,194.5C 61.5654,194.938 61.3988,195.272 61,195.5C 57.2385,191.23 53.0719,187.563 48.5,184.5C 45.362,153.621 46.862,122.955 53,92.5C 53.3826,91.944 53.8826,91.6107 54.5,91.5 Z"/></g>
<g><path style="opacity:0.949" fill="#7c6bd3" d="M 309.5,189.5 C 310.773,196.804 311.94,204.138 313,211.5C 320.073,213.572 324.906,218.072 327.5,225C 333.491,225.499 339.491,225.666 345.5,225.5C 349.892,230.894 354.892,235.561 360.5,239.5C 358.925,256.23 353.591,271.563 344.5,285.5C 341.833,282.167 338.833,279.167 335.5,276.5C 342.105,264.683 346.105,252.016 347.5,238.5C 340.825,238.334 334.158,238.5 327.5,239C 326.267,241.314 324.933,243.481 323.5,245.5C 320.43,242.436 317.763,239.103 315.5,235.5C 315.875,226.87 311.875,223.203 303.5,224.5C 300.436,221.43 297.103,218.763 293.5,216.5C 295.428,214.526 297.761,213.026 300.5,212C 299.364,205.823 298.031,199.656 296.5,193.5C 294.282,192.943 291.949,192.943 289.5,193.5C 286.167,189.833 282.833,186.167 279.5,182.5C 283.639,181.437 287.972,180.77 292.5,180.5C 292.037,177.779 291.371,175.112 290.5,172.5C 290.435,172.062 290.601,171.728 291,171.5C 297.035,177.703 303.202,183.703 309.5,189.5 Z"/></g>
<g><path style="opacity:0.958" fill="#ae6ccf" d="M 451.5,149.5 C 455.833,153.167 459.833,157.167 463.5,161.5C 463.584,176.909 462.584,192.242 460.5,207.5C 456.598,205.107 453.098,202.107 450,198.5C 449.617,199.056 449.117,199.389 448.5,199.5C 450.385,182.892 451.385,166.226 451.5,149.5 Z"/></g>
<g><path style="opacity:0.951" fill="#a16dd0" d="M 415.5,164.5 C 419.86,168.194 423.86,172.194 427.5,176.5C 426.669,188.985 425.002,201.318 422.5,213.5C 419.105,210.098 415.438,207.098 411.5,204.5C 413.346,191.216 414.68,177.883 415.5,164.5 Z"/></g>
<g><path style="opacity:0.954" fill="#a16dd0" d="M 460.5,207.5 C 458.386,219.512 456.053,231.512 453.5,243.5C 449.562,240.902 445.895,237.902 442.5,234.5C 444.758,222.876 446.758,211.21 448.5,199.5C 449.117,199.389 449.617,199.056 450,198.5C 453.098,202.107 456.598,205.107 460.5,207.5 Z"/></g>
<g><path style="opacity:0.946" fill="#946cd1" d="M 411.5,204.5 C 415.438,207.098 419.105,210.098 422.5,213.5C 420.573,226.207 417.573,238.54 413.5,250.5C 410.167,247.5 406.833,244.5 403.5,241.5C 406.642,229.265 409.309,216.931 411.5,204.5 Z"/></g>
<g><path style="opacity:0.962" fill="#5b6ad6" d="M 186.5,186.5 C 193.833,193.5 201.167,200.5 208.5,207.5C 207.759,213.471 207.425,219.471 207.5,225.5C 218.833,225.5 230.167,225.5 241.5,225.5C 242.952,226.302 244.618,226.802 246.5,227C 251.369,232.037 256.369,236.87 261.5,241.5C 261.334,246.511 261.501,251.511 262,256.5C 268.526,259.026 273.026,263.526 275.5,270C 280.767,271.234 286.1,272.067 291.5,272.5C 296.605,277.103 301.605,281.936 306.5,287C 305.584,287.278 304.918,287.778 304.5,288.5C 300.878,297.745 296.211,306.412 290.5,314.5C 290.833,314.833 291.167,315.167 291.5,315.5C 301.372,311.073 310.372,305.406 318.5,298.5C 321.167,301.5 323.833,304.5 326.5,307.5C 312.034,321.735 294.7,330.735 274.5,334.5C 271.232,329.893 267.565,325.559 263.5,321.5C 276.984,313.079 286.317,301.245 291.5,286C 286.244,284.51 280.911,283.843 275.5,284C 274.182,286.824 272.515,289.324 270.5,291.5C 269.005,287.327 266.338,283.994 262.5,281.5C 265.054,271.722 261.387,267.722 251.5,269.5C 248.167,266.833 245.167,263.833 242.5,260.5C 244.519,259.067 246.686,257.733 249,256.5C 249.499,250.509 249.666,244.509 249.5,238.5C 235.5,238.5 221.5,238.5 207.5,238.5C 207.5,240.5 207.5,242.5 207.5,244.5C 201.528,238.193 195.528,231.86 189.5,225.5C 191.167,225.5 192.833,225.5 194.5,225.5C 194.395,218.095 195.062,210.762 196.5,203.5C 194.545,201.042 192.378,198.709 190,196.5C 188.132,193.395 186.965,190.062 186.5,186.5 Z"/></g>
<g><path style="opacity:0.948" fill="#4b6ad8" d="M 180.5,181.5 C 178.408,181.561 176.908,182.561 176,184.5C 168.704,197.221 164.537,210.888 163.5,225.5C 172.167,225.5 180.833,225.5 189.5,225.5C 195.528,231.86 201.528,238.193 207.5,244.5C 208.412,254.303 210.078,263.97 212.5,273.5C 220.2,272.579 227.867,271.412 235.5,270C 236.99,266.177 239.323,263.011 242.5,260.5C 245.167,263.833 248.167,266.833 251.5,269.5C 246.189,274.212 246.189,279.045 251.5,284C 255.741,285.188 259.408,284.355 262.5,281.5C 266.338,283.994 269.005,287.327 270.5,291.5C 268.244,294.405 265.244,296.072 261.5,296.5C 261.5,304.167 261.5,311.833 261.5,319.5C 257.5,315.833 253.5,312.167 249.5,308.5C 249.5,304.5 249.5,300.5 249.5,296.5C 242.896,294.936 238.396,290.936 236,284.5C 235.107,283.919 234.107,283.585 233,283.5C 227.495,284.292 221.995,285.126 216.5,286C 218.369,290.238 220.369,294.405 222.5,298.5C 222.565,298.938 222.399,299.272 222,299.5C 213.875,291.882 206.375,283.882 199.5,275.5C 196.64,263.337 194.973,251.004 194.5,238.5C 184.167,238.5 173.833,238.5 163.5,238.5C 164.609,247.382 166.609,256.048 169.5,264.5C 169.565,264.938 169.399,265.272 169,265.5C 163.631,259.964 158.131,254.63 152.5,249.5C 147.218,221.243 152.551,195.243 168.5,171.5C 169.496,171.586 170.329,171.252 171,170.5C 174.5,174 178,177.5 181.5,181C 181.272,181.399 180.938,181.565 180.5,181.5 Z"/></g>
<g><path style="opacity:0.949" fill="#956cd1" d="M 442.5,234.5 C 445.895,237.902 449.562,240.902 453.5,243.5C 450.147,255.576 446.48,267.576 442.5,279.5C 439.105,276.098 435.438,273.098 431.5,270.5C 435.601,258.536 439.268,246.536 442.5,234.5 Z"/></g>
<g><path style="opacity:0.95" fill="#866bd2" d="M 403.5,241.5 C 406.833,244.5 410.167,247.5 413.5,250.5C 408.794,267.23 402.461,283.23 394.5,298.5C 391.833,295.167 388.833,292.167 385.5,289.5C 392.115,273.646 398.115,257.646 403.5,241.5 Z"/></g>
<g><path style="opacity:0.972" fill="#4069d9" d="M 152.5,249.5 C 158.131,254.63 163.631,259.964 169,265.5C 169.399,265.272 169.565,264.938 169.5,264.5C 172.368,271.229 176.035,277.562 180.5,283.5C 187.131,281.19 193.464,278.523 199.5,275.5C 206.375,283.882 213.875,291.882 222,299.5C 222.399,299.272 222.565,298.938 222.5,298.5C 228.257,309.589 236.924,317.589 248.5,322.5C 249.493,317.88 249.827,313.214 249.5,308.5C 253.5,312.167 257.5,315.833 261.5,319.5C 261.5,320.833 262.167,321.5 263.5,321.5C 267.565,325.559 271.232,329.893 274.5,334.5C 230.07,340.191 194.57,325.191 168,289.5C 160.174,277.186 155.007,263.853 152.5,249.5 Z M 216.5,313.5 C 205.961,308.804 196.627,302.304 188.5,294C 193.079,292.21 197.745,290.71 202.5,289.5C 203.167,289.833 203.833,290.167 204.5,290.5C 207.733,298.635 211.733,306.301 216.5,313.5 Z"/></g>
<g><path style="opacity:0.946" fill="#876bd2" d="M 431.5,270.5 C 435.438,273.098 439.105,276.098 442.5,279.5C 436.646,295.412 429.646,310.745 421.5,325.5C 418.471,322.141 415.471,318.808 412.5,315.5C 420.197,301.076 426.53,286.076 431.5,270.5 Z"/></g>
<g><path style="opacity:0.949" fill="#1568dd" d="M 48.5,184.5 C 53.0719,187.563 57.2385,191.23 61,195.5C 61.3988,195.272 61.5654,194.938 61.5,194.5C 75.4966,293.341 120.83,374.508 197.5,438C 215.462,452.315 234.129,465.648 253.5,478C 254.833,478.667 256.167,478.667 257.5,478C 260.059,476.223 262.726,474.723 265.5,473.5C 268.167,476.5 270.833,479.5 273.5,482.5C 268.044,486.935 262.044,490.602 255.5,493.5C 176.578,449.743 117.745,387.077 79,305.5C 61.7794,266.951 51.6127,226.618 48.5,184.5 Z"/></g>
<g><path style="opacity:0.96" fill="#2369dc" d="M 84.5,181.5 C 89.1667,185.833 93.8333,190.167 98.5,194.5C 107.64,261.766 134.807,320.432 180,370.5C 202.471,394.989 227.305,416.489 254.5,435C 257.496,434.329 260.163,432.829 262.5,430.5C 263.995,434.673 266.662,438.006 270.5,440.5C 266.272,444.716 261.272,447.716 255.5,449.5C 200.064,415.896 156.23,370.896 124,314.5C 101.058,273.063 87.891,228.729 84.5,181.5 Z"/></g>
<g><path style="opacity:0.942" fill="#716bd4" d="M 385.5,289.5 C 388.833,292.167 391.833,295.167 394.5,298.5C 388.942,310.619 382.608,322.286 375.5,333.5C 371.897,331.237 368.564,328.57 365.5,325.5C 372.17,313.492 378.837,301.492 385.5,289.5 Z"/></g>
<g><path style="opacity:0.964" fill="#6d6bd5" d="M 412.5,315.5 C 415.471,318.808 418.471,322.141 421.5,325.5C 413.585,342.347 403.918,358.013 392.5,372.5C 389.436,369.43 386.103,366.763 382.5,364.5C 393.755,349.001 403.755,332.668 412.5,315.5 Z"/></g>
<g><path style="opacity:0.957" fill="#5a6ad6" d="M 365.5,325.5 C 368.564,328.57 371.897,331.237 375.5,333.5C 365.283,349.047 353.95,363.714 341.5,377.5C 338.536,375.038 335.703,372.371 333,369.5C 332.617,370.056 332.117,370.389 331.5,370.5C 343.565,356.029 354.898,341.029 365.5,325.5 Z"/></g>
<g><path style="opacity:0.963" fill="#546ad7" d="M 382.5,364.5 C 386.103,366.763 389.436,369.43 392.5,372.5C 381.306,388.698 368.64,403.698 354.5,417.5C 352.209,413.205 349.209,410.205 345.5,408.5C 358.585,394.419 370.919,379.752 382.5,364.5 Z"/></g>
<g><path style="opacity:0.972" fill="#3869da" d="M 341.5,377.5 C 320.585,401.757 296.919,422.757 270.5,440.5C 266.662,438.006 263.995,434.673 262.5,430.5C 287.274,412.739 310.274,392.739 331.5,370.5C 332.117,370.389 332.617,370.056 333,369.5C 335.703,372.371 338.536,375.038 341.5,377.5 Z"/></g>
<g><path style="opacity:0.944" fill="#2c69db" d="M 345.5,408.5 C 349.209,410.205 352.209,413.205 354.5,417.5C 330.105,442.577 303.105,464.244 273.5,482.5C 270.833,479.5 268.167,476.5 265.5,473.5C 293.961,454.239 320.627,432.573 345.5,408.5 Z"/></g>
</svg>
